<svg xmlns="http://www.w3.org/2000/svg" xmlns:xlink="http://www.w3.org/1999/xlink" width="500" zoomAndPan="magnify" viewBox="0 0 375 374.999991" height="500" preserveAspectRatio="xMidYMid meet" version="1.0"><defs><g/><clipPath id="c819e8b97c"><path d="M 37.5 140 L 63 140 L 63 218.386719 L 37.5 218.386719 Z M 37.5 140 " clip-rule="nonzero"/></clipPath><clipPath id="33b8e2ebe6"><path d="M 162.703125 140.878906 L 187.496094 140.878906 L 187.496094 218.382812 L 162.703125 218.382812 Z M 162.703125 140.878906 " clip-rule="nonzero"/></clipPath><clipPath id="1ead1487c5"><path d="M 100 123.136719 L 125 123.136719 L 125 149 L 100 149 Z M 100 123.136719 " clip-rule="nonzero"/></clipPath></defs><path fill="#4a87ce" d="M 88.644531 166.570312 C 86.804688 166.570312 85.089844 166.917969 83.5 167.613281 C 81.90625 168.308594 80.527344 169.246094 79.359375 170.425781 C 78.191406 171.609375 77.265625 172.992188 76.582031 174.582031 C 75.898438 176.171875 75.558594 177.863281 75.558594 179.652344 C 75.558594 181.441406 75.898438 183.132812 76.582031 184.722656 C 77.265625 186.3125 78.191406 187.699219 79.359375 188.878906 C 80.527344 190.058594 81.90625 190.996094 83.5 191.691406 C 85.089844 192.390625 86.804688 192.738281 88.644531 192.738281 C 90.457031 192.738281 92.160156 192.390625 93.75 191.691406 C 95.339844 190.996094 96.726562 190.050781 97.90625 188.859375 C 99.085938 187.667969 100.015625 186.28125 100.699219 184.703125 C 101.382812 183.125 101.726562 181.441406 101.726562 179.652344 C 101.726562 177.863281 101.382812 176.179688 100.699219 174.601562 C 100.015625 173.023438 99.085938 171.636719 97.90625 170.445312 C 96.726562 169.253906 95.339844 168.308594 93.75 167.613281 C 92.160156 166.917969 90.457031 166.570312 88.644531 166.570312 Z M 109.515625 179.652344 C 109.515625 185.46875 107.476562 190.386719 103.402344 194.414062 C 99.277344 198.488281 94.359375 200.527344 88.644531 200.527344 C 82.875 200.527344 77.957031 198.488281 73.882812 194.414062 C 69.804688 190.339844 67.769531 185.417969 67.769531 179.652344 C 67.769531 173.886719 69.804688 168.96875 73.882812 164.890625 C 77.957031 160.816406 82.875 158.777344 88.644531 158.777344 C 94.359375 158.777344 99.277344 160.816406 103.402344 164.890625 C 105.441406 166.929688 106.964844 169.179688 107.96875 171.636719 C 108.976562 174.097656 109.492188 176.769531 109.515625 179.652344 " fill-opacity="1" fill-rule="nonzero"/><path fill="#4a87ce" d="M 136.355469 166.570312 C 134.515625 166.570312 132.800781 166.917969 131.210938 167.613281 C 129.621094 168.308594 128.242188 169.246094 127.074219 170.425781 C 125.90625 171.609375 124.980469 172.992188 124.296875 174.582031 C 123.613281 176.171875 123.273438 177.863281 123.273438 179.652344 C 123.273438 181.441406 123.613281 183.132812 124.296875 184.722656 C 124.980469 186.3125 125.90625 187.699219 127.074219 188.878906 C 128.242188 190.058594 129.621094 190.996094 131.210938 191.691406 C 132.800781 192.390625 134.515625 192.738281 136.355469 192.738281 C 138.167969 192.738281 139.871094 192.390625 141.460938 191.691406 C 143.050781 190.996094 144.4375 190.050781 145.617188 188.859375 C 146.796875 187.667969 147.730469 186.28125 148.414062 184.703125 C 149.097656 183.125 149.4375 181.441406 149.4375 179.652344 C 149.4375 177.863281 149.097656 176.179688 148.414062 174.601562 C 147.730469 173.023438 146.796875 171.636719 145.617188 170.445312 C 144.4375 169.253906 143.050781 168.308594 141.460938 167.613281 C 139.871094 166.917969 138.167969 166.570312 136.355469 166.570312 Z M 157.230469 179.652344 C 157.230469 185.46875 155.191406 190.386719 151.117188 194.414062 C 146.992188 198.488281 142.070312 200.527344 136.355469 200.527344 C 130.589844 200.527344 125.667969 198.488281 121.59375 194.414062 C 117.519531 190.339844 115.480469 185.417969 115.480469 179.652344 C 115.480469 173.886719 117.519531 168.96875 121.59375 164.890625 C 125.667969 160.816406 130.589844 158.777344 136.355469 158.777344 C 142.070312 158.777344 146.992188 160.816406 151.117188 164.890625 C 153.152344 166.929688 154.675781 169.179688 155.683594 171.636719 C 156.6875 174.097656 157.203125 176.769531 157.230469 179.652344 " fill-opacity="1" fill-rule="nonzero"/><g clip-path="url(#c819e8b97c)"><path fill="#211d1d" d="M 58.375 140.921875 C 59.492188 140.921875 60.417969 141.300781 61.152344 142.058594 C 61.882812 142.820312 62.25 143.742188 62.25 144.835938 C 62.25 145.957031 61.882812 146.882812 61.152344 147.613281 C 60.417969 148.347656 59.492188 148.714844 58.375 148.714844 C 55.292969 148.714844 53.753906 150.253906 53.753906 153.335938 L 53.753906 171.152344 C 53.753906 174.730469 52.933594 177.566406 51.292969 179.652344 C 52.933594 181.742188 53.753906 184.574219 53.753906 188.152344 L 53.753906 205.96875 C 53.753906 209.050781 55.292969 210.59375 58.375 210.59375 C 59.492188 210.59375 60.417969 210.957031 61.152344 211.691406 C 61.882812 212.425781 62.25 213.351562 62.25 214.46875 C 62.25 215.585938 61.882812 216.519531 61.152344 217.265625 C 60.417969 218.007812 59.492188 218.382812 58.375 218.382812 C 50.097656 218.382812 45.960938 214.246094 45.960938 205.96875 L 45.960938 188.152344 C 45.960938 185.070312 44.433594 183.53125 41.375 183.53125 C 40.257812 183.53125 39.332031 183.164062 38.597656 182.429688 C 37.867188 181.699219 37.5 180.769531 37.5 179.652344 C 37.5 178.535156 37.867188 177.609375 38.597656 176.875 C 39.332031 176.144531 40.257812 175.777344 41.375 175.777344 C 44.433594 175.777344 45.960938 174.234375 45.960938 171.152344 L 45.960938 153.335938 C 45.960938 145.0625 50.097656 140.921875 58.375 140.921875 " fill-opacity="1" fill-rule="nonzero"/></g><g clip-path="url(#33b8e2ebe6)"><path fill="#211d1d" d="M 179.035156 153.335938 L 179.035156 171.152344 C 179.035156 174.234375 180.5625 175.777344 183.621094 175.777344 C 184.738281 175.777344 185.664062 176.144531 186.398438 176.875 C 187.132812 177.609375 187.496094 178.535156 187.496094 179.652344 C 187.496094 180.769531 187.132812 181.699219 186.398438 182.429688 C 185.664062 183.164062 184.738281 183.53125 183.621094 183.53125 C 180.5625 183.53125 179.035156 185.070312 179.035156 188.152344 L 179.035156 205.96875 C 179.035156 214.246094 174.898438 218.382812 166.621094 218.382812 C 165.503906 218.382812 164.578125 218.007812 163.84375 217.265625 C 163.113281 216.519531 162.746094 215.585938 162.746094 214.46875 C 162.746094 213.351562 163.113281 212.425781 163.84375 211.691406 C 164.578125 210.957031 165.503906 210.59375 166.621094 210.59375 C 169.703125 210.59375 171.246094 209.050781 171.246094 205.96875 L 171.246094 188.152344 C 171.246094 184.574219 172.066406 181.742188 173.707031 179.652344 C 172.066406 177.566406 171.246094 174.730469 171.246094 171.152344 L 171.246094 153.335938 C 171.246094 150.253906 169.703125 148.714844 166.621094 148.714844 C 165.503906 148.714844 164.578125 148.347656 163.84375 147.613281 C 163.113281 146.882812 162.746094 145.957031 162.746094 144.835938 C 162.746094 143.742188 163.113281 142.820312 163.84375 142.058594 C 164.578125 141.300781 165.503906 140.921875 166.621094 140.921875 C 174.898438 140.921875 179.035156 145.0625 179.035156 153.335938 " fill-opacity="1" fill-rule="nonzero"/></g><g clip-path="url(#1ead1487c5)"><path fill="#211d1d" d="M 124.167969 144.015625 C 124.167969 144.660156 124.042969 145.261719 123.792969 145.820312 C 123.542969 146.378906 123.214844 146.871094 122.804688 147.292969 C 122.394531 147.714844 121.902344 148.046875 121.332031 148.28125 C 120.761719 148.519531 120.164062 148.636719 119.542969 148.636719 C 118.398438 148.636719 117.417969 148.238281 116.597656 147.441406 C 115.777344 146.648438 115.109375 145.671875 114.585938 144.515625 C 114.0625 143.363281 113.683594 142.167969 113.449219 140.9375 C 113.214844 139.707031 113.09375 138.558594 113.09375 137.492188 C 113.09375 133.09375 114.972656 128.644531 118.722656 124.144531 C 119.394531 123.472656 120.152344 123.140625 120.996094 123.140625 C 121.867188 123.140625 122.613281 123.449219 123.234375 124.070312 C 123.855469 124.691406 124.167969 125.4375 124.167969 126.308594 C 124.167969 126.730469 124.078125 127.164062 123.90625 127.613281 C 122.785156 130.347656 122.226562 132.941406 122.226562 135.402344 C 122.226562 137.738281 122.734375 140 123.753906 142.1875 C 124.03125 142.808594 124.167969 143.417969 124.167969 144.015625 Z M 111.902344 144.015625 C 111.902344 144.660156 111.777344 145.261719 111.53125 145.820312 C 111.28125 146.378906 110.953125 146.871094 110.542969 147.292969 C 110.132812 147.714844 109.640625 148.046875 109.070312 148.28125 C 108.496094 148.519531 107.902344 148.636719 107.28125 148.636719 C 106.136719 148.636719 105.15625 148.238281 104.335938 147.441406 C 103.515625 146.648438 102.84375 145.671875 102.324219 144.515625 C 101.800781 143.363281 101.421875 142.167969 101.183594 140.9375 C 100.949219 139.707031 100.832031 138.558594 100.832031 137.492188 C 100.832031 133.09375 102.707031 128.644531 106.460938 124.144531 C 107.128906 123.472656 107.886719 123.140625 108.734375 123.140625 C 109.601562 123.140625 110.347656 123.449219 110.96875 124.070312 C 111.589844 124.691406 111.902344 125.4375 111.902344 126.308594 C 111.902344 126.730469 111.816406 127.164062 111.640625 127.613281 C 110.523438 130.347656 109.964844 132.941406 109.964844 135.402344 C 109.964844 137.738281 110.472656 140 111.492188 142.1875 C 111.765625 142.808594 111.902344 143.417969 111.902344 144.015625 " fill-opacity="1" fill-rule="nonzero"/></g><g fill="#4a87ce" fill-opacity="1"><g transform="translate(202.212575, 179.01097)"><g><path d="M 6.8125 -20.3125 C 7.445312 -20.269531 7.90625 -20.25 8.1875 -20.25 L 9.375 -20.25 C 9.875 -20.25 10.367188 -20.285156 10.859375 -20.359375 L 10.859375 -6.734375 C 10.859375 -4.492188 10.265625 -2.738281 9.078125 -1.46875 C 7.941406 -0.238281 6.414062 0.375 4.5 0.375 C 3.1875 0.375 2.082031 0.113281 1.1875 -0.40625 C 0.851562 -0.601562 0.519531 -0.835938 0.1875 -1.109375 L 0.1875 -5.515625 L 0.296875 -5.546875 C 0.710938 -4.867188 1.207031 -4.316406 1.78125 -3.890625 C 2.351562 -3.460938 3.066406 -3.25 3.921875 -3.25 C 5.847656 -3.25 6.8125 -4.367188 6.8125 -6.609375 Z M 6.8125 -20.3125 "/></g></g></g><g fill="#4a87ce" fill-opacity="1"><g transform="translate(215.302326, 179.01097)"><g><path d="M 12.796875 -3.65625 C 13.429688 -3.65625 13.867188 -3.710938 14.109375 -3.828125 L 14.171875 -3.828125 L 14.015625 0 L 2.625 0 L 2.625 -20.34375 C 2.894531 -20.320312 3.195312 -20.304688 3.53125 -20.296875 L 4.59375 -20.28125 C 5.300781 -20.257812 6.070312 -20.25 6.90625 -20.25 C 9.226562 -20.25 11.53125 -20.285156 13.8125 -20.359375 C 13.695312 -19.472656 13.640625 -18.28125 13.640625 -16.78125 C 13.640625 -16.625 13.648438 -16.503906 13.671875 -16.421875 L 13.640625 -16.375 C 13.109375 -16.53125 12.359375 -16.609375 11.390625 -16.609375 L 6.59375 -16.609375 L 6.59375 -12.71875 L 10.203125 -12.71875 C 11.316406 -12.71875 11.984375 -12.75 12.203125 -12.8125 L 12.25 -9.0625 C 11.757812 -9.101562 11.128906 -9.125 10.359375 -9.125 L 6.59375 -9.125 L 6.59375 -3.65625 Z M 12.796875 -3.65625 "/></g></g></g><g fill="#4a87ce" fill-opacity="1"><g transform="translate(230.918704, 179.01097)"><g><path d="M 6.859375 0 C 6.992188 -0.394531 7.0625 -1.316406 7.0625 -2.765625 L 7.0625 -7 C 5.300781 -10.863281 4.175781 -13.273438 3.6875 -14.234375 C 3.207031 -15.191406 2.800781 -15.953125 2.46875 -16.515625 C 1.40625 -18.296875 0.765625 -19.316406 0.546875 -19.578125 C 0.335938 -19.847656 0.117188 -20.070312 -0.109375 -20.25 L 5.140625 -20.25 C 5.253906 -20.039062 5.40625 -19.738281 5.59375 -19.34375 L 9.28125 -11.5625 C 9.457031 -11.988281 9.660156 -12.46875 9.890625 -13 C 12.109375 -17.757812 13.226562 -20.175781 13.25 -20.25 L 18.28125 -20.25 C 17.757812 -19.832031 17.125 -18.957031 16.375 -17.625 C 16.144531 -17.226562 15.910156 -16.773438 15.671875 -16.265625 L 12.234375 -9.109375 C 11.847656 -8.242188 11.519531 -7.460938 11.25 -6.765625 L 11.25 -2.40625 C 11.25 -1.382812 11.3125 -0.582031 11.4375 0 Z M 6.859375 0 "/></g></g></g><g fill="#4a87ce" fill-opacity="1"><g transform="translate(249.076929, 179.01097)"><g><path d="M 14.84375 -19.109375 L 14.546875 -14.640625 L 14.4375 -14.609375 C 13.6875 -15.734375 12.410156 -16.460938 10.609375 -16.796875 C 10.035156 -16.910156 9.488281 -16.96875 8.96875 -16.96875 C 8.445312 -16.96875 8 -16.921875 7.625 -16.828125 C 7.257812 -16.742188 6.945312 -16.613281 6.6875 -16.4375 C 6.125 -16.070312 5.84375 -15.59375 5.84375 -15 C 5.84375 -14.226562 6.085938 -13.648438 6.578125 -13.265625 C 7.179688 -12.804688 8.1875 -12.484375 9.59375 -12.296875 C 11.007812 -12.109375 12.144531 -11.847656 13 -11.515625 C 13.851562 -11.191406 14.550781 -10.785156 15.09375 -10.296875 C 16.132812 -9.359375 16.65625 -8.035156 16.65625 -6.328125 C 16.65625 -4.097656 15.8125 -2.378906 14.125 -1.171875 C 12.6875 -0.140625 10.867188 0.375 8.671875 0.375 C 6.910156 0.375 5.164062 0.0390625 3.4375 -0.625 C 2.875 -0.84375 2.378906 -1.101562 1.953125 -1.40625 L 2.109375 -6.484375 L 2.171875 -6.53125 C 3.429688 -4.351562 5.5 -3.265625 8.375 -3.265625 C 10.414062 -3.265625 11.765625 -3.757812 12.421875 -4.75 C 12.640625 -5.082031 12.75 -5.453125 12.75 -5.859375 C 12.75 -6.273438 12.679688 -6.617188 12.546875 -6.890625 C 12.421875 -7.160156 12.207031 -7.390625 11.90625 -7.578125 C 11.3125 -7.960938 10.316406 -8.21875 8.921875 -8.34375 C 7.535156 -8.476562 6.398438 -8.726562 5.515625 -9.09375 C 4.640625 -9.46875 3.9375 -9.921875 3.40625 -10.453125 C 2.457031 -11.429688 1.984375 -12.789062 1.984375 -14.53125 C 1.984375 -16.34375 2.613281 -17.804688 3.875 -18.921875 C 5.164062 -20.054688 6.90625 -20.625 9.09375 -20.625 C 11.28125 -20.625 13.195312 -20.117188 14.84375 -19.109375 Z M 14.84375 -19.109375 "/></g></g></g><g fill="#4a87ce" fill-opacity="1"><g transform="translate(267.235154, 179.01097)"><g><path d="M 14.84375 -19.109375 L 14.546875 -14.640625 L 14.4375 -14.609375 C 13.6875 -15.734375 12.410156 -16.460938 10.609375 -16.796875 C 10.035156 -16.910156 9.488281 -16.96875 8.96875 -16.96875 C 8.445312 -16.96875 8 -16.921875 7.625 -16.828125 C 7.257812 -16.742188 6.945312 -16.613281 6.6875 -16.4375 C 6.125 -16.070312 5.84375 -15.59375 5.84375 -15 C 5.84375 -14.226562 6.085938 -13.648438 6.578125 -13.265625 C 7.179688 -12.804688 8.1875 -12.484375 9.59375 -12.296875 C 11.007812 -12.109375 12.144531 -11.847656 13 -11.515625 C 13.851562 -11.191406 14.550781 -10.785156 15.09375 -10.296875 C 16.132812 -9.359375 16.65625 -8.035156 16.65625 -6.328125 C 16.65625 -4.097656 15.8125 -2.378906 14.125 -1.171875 C 12.6875 -0.140625 10.867188 0.375 8.671875 0.375 C 6.910156 0.375 5.164062 0.0390625 3.4375 -0.625 C 2.875 -0.84375 2.378906 -1.101562 1.953125 -1.40625 L 2.109375 -6.484375 L 2.171875 -6.53125 C 3.429688 -4.351562 5.5 -3.265625 8.375 -3.265625 C 10.414062 -3.265625 11.765625 -3.757812 12.421875 -4.75 C 12.640625 -5.082031 12.75 -5.453125 12.75 -5.859375 C 12.75 -6.273438 12.679688 -6.617188 12.546875 -6.890625 C 12.421875 -7.160156 12.207031 -7.390625 11.90625 -7.578125 C 11.3125 -7.960938 10.316406 -8.21875 8.921875 -8.34375 C 7.535156 -8.476562 6.398438 -8.726562 5.515625 -9.09375 C 4.640625 -9.46875 3.9375 -9.921875 3.40625 -10.453125 C 2.457031 -11.429688 1.984375 -12.789062 1.984375 -14.53125 C 1.984375 -16.34375 2.613281 -17.804688 3.875 -18.921875 C 5.164062 -20.054688 6.90625 -20.625 9.09375 -20.625 C 11.28125 -20.625 13.195312 -20.117188 14.84375 -19.109375 Z M 14.84375 -19.109375 "/></g></g></g><g fill="#4a87ce" fill-opacity="1"><g transform="translate(285.393378, 179.01097)"><g><path d="M 4.265625 -2.40625 C 3.347656 -3.289062 2.625 -4.347656 2.09375 -5.578125 C 1.5625 -6.816406 1.296875 -8.175781 1.296875 -9.65625 C 1.296875 -11.132812 1.539062 -12.53125 2.03125 -13.84375 C 2.53125 -15.164062 3.242188 -16.328125 4.171875 -17.328125 C 5.097656 -18.335938 6.210938 -19.140625 7.515625 -19.734375 C 8.828125 -20.328125 10.296875 -20.625 11.921875 -20.625 C 14.722656 -20.625 17.082031 -19.738281 19 -17.96875 C 21.039062 -16.082031 22.0625 -13.535156 22.0625 -10.328125 C 22.0625 -7.222656 21.007812 -4.644531 18.90625 -2.59375 C 17.601562 -1.320312 16.054688 -0.445312 14.265625 0.03125 C 13.378906 0.257812 12.34375 0.375 11.15625 0.375 C 9.976562 0.375 8.765625 0.132812 7.515625 -0.34375 C 6.273438 -0.832031 5.191406 -1.519531 4.265625 -2.40625 Z M 5.53125 -9.859375 C 5.53125 -8.921875 5.6875 -8.054688 6 -7.265625 C 6.3125 -6.472656 6.75 -5.789062 7.3125 -5.21875 C 8.5 -4.019531 10.023438 -3.421875 11.890625 -3.421875 C 13.660156 -3.421875 15.085938 -3.992188 16.171875 -5.140625 C 17.265625 -6.328125 17.8125 -7.945312 17.8125 -10 C 17.8125 -11.925781 17.285156 -13.535156 16.234375 -14.828125 C 15.109375 -16.203125 13.566406 -16.890625 11.609375 -16.890625 C 9.710938 -16.890625 8.207031 -16.191406 7.09375 -14.796875 C 6.050781 -13.484375 5.53125 -11.835938 5.53125 -9.859375 Z M 5.53125 -9.859375 "/></g></g></g><g fill="#4a87ce" fill-opacity="1"><g transform="translate(308.757063, 179.01097)"><g><path d="M 2.75 0 C 2.8125 -0.34375 2.84375 -0.71875 2.84375 -1.125 L 2.84375 -20.25 L 5.890625 -20.25 L 13.953125 -7.546875 L 13.953125 -19.203125 C 13.953125 -19.765625 13.90625 -20.113281 13.8125 -20.25 L 17.921875 -20.25 C 17.867188 -19.84375 17.84375 -19.394531 17.84375 -18.90625 L 17.84375 0 L 14.671875 0 L 6.734375 -12.1875 L 6.734375 0 Z M 2.75 0 "/></g></g></g><g fill="#737373" fill-opacity="1"><g transform="translate(213.724605, 198.042556)"><g><path d="M 3.0625 -4.109375 L 3.0625 -3.328125 L 1.296875 -3.328125 L 1.296875 0 L 0.4375 0 L 0.4375 -7.703125 L 3.5 -7.703125 L 3.5 -6.921875 L 1.296875 -6.921875 L 1.296875 -4.109375 Z M 3.0625 -4.109375 "/></g></g></g><g fill="#737373" fill-opacity="1"><g transform="translate(221.861999, 198.042556)"><g><path d="M 1.25 -1.8125 C 1.25 -1.457031 1.320312 -1.179688 1.46875 -0.984375 C 1.613281 -0.796875 1.84375 -0.703125 2.15625 -0.703125 C 2.46875 -0.703125 2.691406 -0.796875 2.828125 -0.984375 C 2.972656 -1.179688 3.046875 -1.457031 3.046875 -1.8125 L 3.046875 -7.703125 L 3.84375 -7.703125 L 3.84375 -1.859375 C 3.84375 -1.273438 3.703125 -0.800781 3.421875 -0.4375 C 3.148438 -0.0820312 2.71875 0.09375 2.125 0.09375 C 1.539062 0.09375 1.109375 -0.0820312 0.828125 -0.4375 C 0.546875 -0.800781 0.40625 -1.273438 0.40625 -1.859375 L 0.40625 -7.703125 L 1.25 -7.703125 Z M 1.25 -1.8125 "/></g></g></g><g fill="#737373" fill-opacity="1"><g transform="translate(230.516036, 198.042556)"><g><path d="M 0.4375 0 L 0.4375 -7.703125 L 1.296875 -7.703125 L 1.296875 -0.78125 L 3.5 -0.78125 L 3.5 0 Z M 0.4375 0 "/></g></g></g><g fill="#737373" fill-opacity="1"><g transform="translate(238.620458, 198.042556)"><g><path d="M 0.4375 0 L 0.4375 -7.703125 L 1.296875 -7.703125 L 1.296875 -0.78125 L 3.5 -0.78125 L 3.5 0 Z M 0.4375 0 "/></g></g></g><g fill="#737373" fill-opacity="1"><g transform="translate(246.724883, 198.042556)"><g><path d="M 2.0625 -7.78125 C 2.644531 -7.78125 3.070312 -7.601562 3.34375 -7.25 C 3.625 -6.90625 3.765625 -6.441406 3.765625 -5.859375 L 3.765625 -5.640625 L 2.953125 -5.640625 L 2.953125 -5.890625 C 2.953125 -6.242188 2.882812 -6.515625 2.75 -6.703125 C 2.613281 -6.898438 2.390625 -7 2.078125 -7 C 1.765625 -7 1.539062 -6.898438 1.40625 -6.703125 C 1.269531 -6.515625 1.203125 -6.25 1.203125 -5.90625 C 1.203125 -5.625 1.265625 -5.375 1.390625 -5.15625 C 1.515625 -4.945312 1.671875 -4.75 1.859375 -4.5625 C 2.054688 -4.382812 2.265625 -4.207031 2.484375 -4.03125 C 2.710938 -3.863281 2.921875 -3.675781 3.109375 -3.46875 C 3.304688 -3.269531 3.46875 -3.039062 3.59375 -2.78125 C 3.71875 -2.519531 3.78125 -2.207031 3.78125 -1.84375 C 3.78125 -1.257812 3.640625 -0.789062 3.359375 -0.4375 C 3.078125 -0.09375 2.640625 0.078125 2.046875 0.078125 C 1.453125 0.078125 1.015625 -0.09375 0.734375 -0.4375 C 0.453125 -0.789062 0.3125 -1.257812 0.3125 -1.84375 L 0.3125 -2.28125 L 1.125 -2.28125 L 1.125 -1.796875 C 1.125 -1.453125 1.195312 -1.179688 1.34375 -0.984375 C 1.488281 -0.796875 1.71875 -0.703125 2.03125 -0.703125 C 2.332031 -0.703125 2.554688 -0.796875 2.703125 -0.984375 C 2.847656 -1.179688 2.921875 -1.453125 2.921875 -1.796875 C 2.921875 -2.085938 2.859375 -2.335938 2.734375 -2.546875 C 2.609375 -2.753906 2.445312 -2.945312 2.25 -3.125 C 2.0625 -3.3125 1.859375 -3.488281 1.640625 -3.65625 C 1.421875 -3.832031 1.210938 -4.019531 1.015625 -4.21875 C 0.828125 -4.425781 0.671875 -4.660156 0.546875 -4.921875 C 0.421875 -5.179688 0.359375 -5.492188 0.359375 -5.859375 C 0.359375 -6.453125 0.492188 -6.921875 0.765625 -7.265625 C 1.046875 -7.609375 1.476562 -7.78125 2.0625 -7.78125 Z M 2.0625 -7.78125 "/></g></g></g><g fill="#737373" fill-opacity="1"><g transform="translate(255.214035, 198.042556)"><g><path d="M 1.5625 0 L 1.5625 -6.921875 L 0.140625 -6.921875 L 0.140625 -7.703125 L 3.84375 -7.703125 L 3.84375 -6.921875 L 2.421875 -6.921875 L 2.421875 0 Z M 1.5625 0 "/></g></g></g><g fill="#737373" fill-opacity="1"><g transform="translate(263.604254, 198.042556)"><g><path d="M 1.3125 -1.546875 L 1.015625 0 L 0.21875 0 L 1.6875 -7.703125 L 2.9375 -7.703125 L 4.40625 0 L 3.546875 0 L 3.25 -1.546875 Z M 1.421875 -2.28125 L 3.140625 -2.28125 L 2.265625 -6.734375 Z M 1.421875 -2.28125 "/></g></g></g><g fill="#737373" fill-opacity="1"><g transform="translate(272.64302, 198.042556)"><g><path d="M 2.09375 -7.78125 C 2.6875 -7.78125 3.125 -7.601562 3.40625 -7.25 C 3.695312 -6.894531 3.84375 -6.425781 3.84375 -5.84375 L 3.84375 -5.140625 L 3.03125 -5.140625 L 3.03125 -5.890625 C 3.03125 -6.234375 2.957031 -6.503906 2.8125 -6.703125 C 2.664062 -6.898438 2.4375 -7 2.125 -7 C 1.8125 -7 1.582031 -6.898438 1.4375 -6.703125 C 1.289062 -6.503906 1.21875 -6.234375 1.21875 -5.890625 L 1.21875 -1.8125 C 1.21875 -1.457031 1.289062 -1.179688 1.4375 -0.984375 C 1.582031 -0.796875 1.8125 -0.703125 2.125 -0.703125 C 2.4375 -0.703125 2.664062 -0.796875 2.8125 -0.984375 C 2.957031 -1.179688 3.03125 -1.457031 3.03125 -1.8125 L 3.03125 -2.8125 L 3.84375 -2.8125 L 3.84375 -1.859375 C 3.84375 -1.273438 3.695312 -0.804688 3.40625 -0.453125 C 3.125 -0.0976562 2.6875 0.078125 2.09375 0.078125 C 1.507812 0.078125 1.078125 -0.0976562 0.796875 -0.453125 C 0.515625 -0.804688 0.375 -1.273438 0.375 -1.859375 L 0.375 -5.84375 C 0.375 -6.132812 0.40625 -6.398438 0.46875 -6.640625 C 0.539062 -6.878906 0.648438 -7.082031 0.796875 -7.25 C 0.941406 -7.414062 1.117188 -7.546875 1.328125 -7.640625 C 1.546875 -7.734375 1.800781 -7.78125 2.09375 -7.78125 Z M 2.09375 -7.78125 "/></g></g></g><g fill="#737373" fill-opacity="1"><g transform="translate(281.220109, 198.042556)"><g><path d="M 1.75 -3.34375 L 1.296875 -2.578125 L 1.296875 0 L 0.4375 0 L 0.4375 -7.703125 L 1.296875 -7.703125 L 1.296875 -3.984375 L 3.34375 -7.703125 L 4.21875 -7.703125 L 2.265625 -4.1875 L 4.28125 0 L 3.40625 0 Z M 1.75 -3.34375 "/></g></g></g><g fill="#737373" fill-opacity="1"><g transform="translate(290.115973, 198.042556)"><g/></g></g><g fill="#737373" fill-opacity="1"><g transform="translate(296.21981, 198.042556)"><g><path d="M 2.25 -7.703125 C 2.84375 -7.703125 3.28125 -7.53125 3.5625 -7.1875 C 3.851562 -6.84375 4 -6.375 4 -5.78125 L 4 -1.90625 C 4 -1.3125 3.851562 -0.84375 3.5625 -0.5 C 3.28125 -0.164062 2.84375 0 2.25 0 L 0.4375 0 L 0.4375 -7.703125 Z M 2.234375 -0.78125 C 2.535156 -0.78125 2.757812 -0.875 2.90625 -1.0625 C 3.0625 -1.25 3.140625 -1.519531 3.140625 -1.875 L 3.140625 -5.828125 C 3.140625 -6.179688 3.0625 -6.453125 2.90625 -6.640625 C 2.757812 -6.828125 2.53125 -6.921875 2.21875 -6.921875 L 1.296875 -6.921875 L 1.296875 -0.78125 Z M 2.234375 -0.78125 "/></g></g></g><g fill="#737373" fill-opacity="1"><g transform="translate(304.972772, 198.042556)"><g><path d="M 3.171875 -4.296875 L 3.171875 -3.515625 L 1.296875 -3.515625 L 1.296875 -0.78125 L 3.609375 -0.78125 L 3.609375 0 L 0.4375 0 L 0.4375 -7.703125 L 3.609375 -7.703125 L 3.609375 -6.921875 L 1.296875 -6.921875 L 1.296875 -4.296875 Z M 3.171875 -4.296875 "/></g></g></g><g fill="#737373" fill-opacity="1"><g transform="translate(313.330014, 198.042556)"><g><path d="M 1.09375 -7.703125 L 2.34375 -1 L 3.59375 -7.703125 L 4.375 -7.703125 L 2.9375 0 L 1.671875 0 L 0.21875 -7.703125 Z M 1.09375 -7.703125 "/></g></g></g></svg>